<?xml version="1.0" encoding="UTF-8" standalone="no"?>
<!-- Created with Inkscape (http://www.inkscape.org/) -->
<svg
   xmlns:svg="http://www.w3.org/2000/svg"
   xmlns="http://www.w3.org/2000/svg"
   version="1.0"
   width="974.07605"
   height="1021.7872"
   id="svg2">
  <defs
     id="defs4">
    <marker
       refX="0"
       refY="0"
       orient="auto"
       style="overflow:visible"
       id="Arrow1Mstart">
      <path
         d="M 0,0 L 5,-5 L -12.5,0 L 5,5 L 0,0 z "
         transform="matrix(0.4,0,0,0.4,4,0)"
         style="fill-rule:evenodd;stroke:black;stroke-width:1pt;marker-start:none"
         id="path11202" />
    </marker>
    <marker
       refX="0"
       refY="0"
       orient="auto"
       style="overflow:visible"
       id="Arrow1Mend">
      <path
         d="M 0,0 L 5,-5 L -12.5,0 L 5,5 L 0,0 z "
         transform="matrix(-0.4,0,0,-0.4,-4,0)"
         style="fill-rule:evenodd;stroke:black;stroke-width:1pt;marker-start:none"
         id="path11199" />
    </marker>
  </defs>
  <g
     transform="translate(627.0416,126.0349)"
     id="layer1">
    <path
       d="M -43.81775,517.90826 L 229.93359,512.85749"
       style="fill:none;fill-opacity:0.75;fill-rule:evenodd;stroke:black;stroke-width:1px;stroke-linecap:butt;stroke-linejoin:miter;stroke-opacity:1"
       id="path2876" />
    <path
       d="M -43.76092,526.45773 L -42.75119,664.32355 L 232.90721,654.29694 L 228.86826,513.92448"
       style="fill:none;fill-opacity:0.75;fill-rule:evenodd;stroke:black;stroke-width:1.11365151px;stroke-linecap:butt;stroke-linejoin:miter;stroke-opacity:1"
       id="path2878" />
    <path
       d="M 90.53254,629.79153 L 90.53254,648.98443 L 164.27367,644.94382 L 156.19245,621.71031 L 90.53254,629.79153 z "
       style="fill:none;fill-opacity:0.75;fill-rule:evenodd;stroke:black;stroke-width:1px;stroke-linecap:butt;stroke-linejoin:miter;stroke-opacity:1"
       id="path2880" />
    <path
       d="M 177.40565,628.78137 L 177.40565,645.95397 L 227.91328,645.95397 L 225.89298,622.72046 L 177.40565,628.78137 z "
       style="fill:none;fill-opacity:0.75;fill-rule:evenodd;stroke:black;stroke-width:1px;stroke-linecap:butt;stroke-linejoin:miter;stroke-opacity:1"
       id="path2882" />
    <path
       d="M -26.64516,572.45649 L 220.84221,564.37527"
       style="fill:none;fill-opacity:0.75;fill-rule:evenodd;stroke:black;stroke-width:1px;stroke-linecap:butt;stroke-linejoin:miter;stroke-opacity:1"
       id="path2884" />
    <path
       d="M -26.64516,597.71031 L 220.84221,592.65954"
       style="fill:none;fill-opacity:0.75;fill-rule:evenodd;stroke:black;stroke-width:1px;stroke-linecap:butt;stroke-linejoin:miter;stroke-opacity:1"
       id="path2886" />
    <path
       d="M -25.63501,602.76107 L -24.62485,613.87275 L -9.47257,612.86259 L -11.49287,600.74076 L -25.63501,602.76107 z "
       style="fill:none;fill-opacity:0.75;fill-rule:evenodd;stroke:black;stroke-width:1px;stroke-linecap:butt;stroke-linejoin:miter;stroke-opacity:1"
       id="path2888" />
    <path
       d="M -14.52333,604.78137 C -20.58424,606.80168 -22.60455,608.82198 -22.60455,608.82198 L -13.51318,611.85244"
       style="fill:none;fill-opacity:0.75;fill-rule:evenodd;stroke:black;stroke-width:1px;stroke-linecap:butt;stroke-linejoin:miter;stroke-opacity:1"
       id="path2890" />
    <path
       d="M 196.59855,598.72046 L 195.5884,609.83214 L 215.79145,607.81183 L 213.77115,596.70015 L 196.59855,598.72046 z "
       style="fill:none;fill-opacity:0.75;fill-rule:evenodd;stroke:black;stroke-width:1px;stroke-linecap:butt;stroke-linejoin:miter;stroke-opacity:1"
       id="path2892" />
    <path
       d="M 199.62901,600.74076 L 210.74069,603.77122 L 201.64932,606.80168"
       style="fill:none;fill-opacity:0.75;fill-rule:evenodd;stroke:black;stroke-width:1px;stroke-linecap:butt;stroke-linejoin:miter;stroke-opacity:1"
       id="path2894" />
    <path
       d="M 15.78125,602.76107 L 14.77109,614.8829 L 123.86757,611.85244 L 122.85742,597.71031 L 15.78125,602.76107 z "
       style="fill:none;fill-opacity:0.75;fill-rule:evenodd;stroke:black;stroke-width:1px;stroke-linecap:butt;stroke-linejoin:miter;stroke-opacity:1"
       id="path2896" />
    <path
       d="M 50.12643,603.77122 L 49.11628,612.86259"
       style="fill:none;fill-opacity:0.75;fill-rule:evenodd;stroke:black;stroke-width:1px;stroke-linecap:butt;stroke-linejoin:miter;stroke-opacity:1"
       id="path2898" />
    <path
       d="M 58.20765,605.79153 L 58.20765,605.79153 z "
       style="fill:none;fill-opacity:0.75;fill-rule:evenodd;stroke:black;stroke-width:1px;stroke-linecap:butt;stroke-linejoin:miter;stroke-opacity:1"
       id="path2900" />
    <path
       d="M 59.21781,603.77122 L 59.21781,609.83214"
       style="fill:none;fill-opacity:0.75;fill-rule:evenodd;stroke:black;stroke-width:1px;stroke-linecap:butt;stroke-linejoin:miter;stroke-opacity:1"
       id="path2902" />
    <path
       d="M 68.30918,603.77122 L 68.30918,609.83214"
       style="fill:none;fill-opacity:0.75;fill-rule:evenodd;stroke:black;stroke-width:1px;stroke-linecap:butt;stroke-linejoin:miter;stroke-opacity:1"
       id="path2904" />
    <g
       transform="translate(454.2857,-7.12256)"
       id="g2916">
      <path
         d="M -457.94861,585.6722 L -458.41821,600.58279 L -450.31715,600.93505 L -451.0216,585.20254 L -457.94861,585.6722 z "
         style="fill:none;fill-opacity:0.75;fill-rule:evenodd;stroke:black;stroke-width:0.11622626px;stroke-linecap:butt;stroke-linejoin:miter;stroke-opacity:1"
         id="path2908" />
      <path
         d="M -453.36969,585.08519 L -453.25234,583.20666 C -453.25234,583.20666 -453.01754,581.68039 -450.1998,580.74117 C -447.38205,579.80187 -452.31308,582.3848 -452.31308,582.3848 L -447.96902,581.21079 L -451.96088,582.85441 L -447.49942,581.91519 L -452.66529,583.55892 L -452.66529,585.31999 L -453.36969,585.08519 z "
         style="fill:none;fill-opacity:0.75;fill-rule:evenodd;stroke:black;stroke-width:0.11622626px;stroke-linecap:butt;stroke-linejoin:miter;stroke-opacity:1"
         id="path2910" />
      <path
         d="M -453.60456,586.494 L -457.83115,591.07292 L -456.65714,592.48173 L -452.54794,587.19851 L -453.60456,586.494 z "
         style="fill:none;fill-opacity:0.75;fill-rule:evenodd;stroke:black;stroke-width:0.11622626px;stroke-linecap:butt;stroke-linejoin:miter;stroke-opacity:1"
         id="path2912" />
      <path
         d="M -457.47899,596.47359 L -456.30488,598.93907 L -451.37382,589.8988 L -453.36969,589.8988 L -457.47899,596.47359 z "
         style="fill:none;fill-opacity:0.75;fill-rule:evenodd;stroke:black;stroke-width:0.11622626px;stroke-linecap:butt;stroke-linejoin:miter;stroke-opacity:1"
         id="path2914" />
    </g>
    <g
       transform="translate(476.2857,-7.12256)"
       id="g2922">
      <path
         d="M -457.94861,585.6722 L -458.41821,600.58279 L -450.31715,600.93505 L -451.0216,585.20254 L -457.94861,585.6722 z "
         style="fill:none;fill-opacity:0.75;fill-rule:evenodd;stroke:black;stroke-width:0.11622626px;stroke-linecap:butt;stroke-linejoin:miter;stroke-opacity:1"
         id="path2924" />
      <path
         d="M -453.36969,585.08519 L -453.25234,583.20666 C -453.25234,583.20666 -453.01754,581.68039 -450.1998,580.74117 C -447.38205,579.80187 -452.31308,582.3848 -452.31308,582.3848 L -447.96902,581.21079 L -451.96088,582.85441 L -447.49942,581.91519 L -452.66529,583.55892 L -452.66529,585.31999 L -453.36969,585.08519 z "
         style="fill:none;fill-opacity:0.75;fill-rule:evenodd;stroke:black;stroke-width:0.11622626px;stroke-linecap:butt;stroke-linejoin:miter;stroke-opacity:1"
         id="path2926" />
      <path
         d="M -453.60456,586.494 L -457.83115,591.07292 L -456.65714,592.48173 L -452.54794,587.19851 L -453.60456,586.494 z "
         style="fill:none;fill-opacity:0.75;fill-rule:evenodd;stroke:black;stroke-width:0.11622626px;stroke-linecap:butt;stroke-linejoin:miter;stroke-opacity:1"
         id="path2928" />
      <path
         d="M -457.47899,596.47359 L -456.30488,598.93907 L -451.37382,589.8988 L -453.36969,589.8988 L -457.47899,596.47359 z "
         style="fill:none;fill-opacity:0.75;fill-rule:evenodd;stroke:black;stroke-width:0.11622626px;stroke-linecap:butt;stroke-linejoin:miter;stroke-opacity:1"
         id="path2930" />
    </g>
    <g
       transform="translate(504.2857,-7.12256)"
       id="g2932">
      <path
         d="M -457.94861,585.6722 L -458.41821,600.58279 L -450.31715,600.93505 L -451.0216,585.20254 L -457.94861,585.6722 z "
         style="fill:none;fill-opacity:0.75;fill-rule:evenodd;stroke:black;stroke-width:0.11622626px;stroke-linecap:butt;stroke-linejoin:miter;stroke-opacity:1"
         id="path2934" />
      <path
         d="M -453.36969,585.08519 L -453.25234,583.20666 C -453.25234,583.20666 -453.01754,581.68039 -450.1998,580.74117 C -447.38205,579.80187 -452.31308,582.3848 -452.31308,582.3848 L -447.96902,581.21079 L -451.96088,582.85441 L -447.49942,581.91519 L -452.66529,583.55892 L -452.66529,585.31999 L -453.36969,585.08519 z "
         style="fill:none;fill-opacity:0.75;fill-rule:evenodd;stroke:black;stroke-width:0.11622626px;stroke-linecap:butt;stroke-linejoin:miter;stroke-opacity:1"
         id="path2936" />
      <path
         d="M -453.60456,586.494 L -457.83115,591.07292 L -456.65714,592.48173 L -452.54794,587.19851 L -453.60456,586.494 z "
         style="fill:none;fill-opacity:0.75;fill-rule:evenodd;stroke:black;stroke-width:0.11622626px;stroke-linecap:butt;stroke-linejoin:miter;stroke-opacity:1"
         id="path2938" />
      <path
         d="M -457.47899,596.47359 L -456.30488,598.93907 L -451.37382,589.8988 L -453.36969,589.8988 L -457.47899,596.47359 z "
         style="fill:none;fill-opacity:0.75;fill-rule:evenodd;stroke:black;stroke-width:0.11622626px;stroke-linecap:butt;stroke-linejoin:miter;stroke-opacity:1"
         id="path2940" />
    </g>
    <g
       transform="translate(542.2857,-7.12256)"
       id="g2942">
      <path
         d="M -457.94861,585.6722 L -458.41821,600.58279 L -450.31715,600.93505 L -451.0216,585.20254 L -457.94861,585.6722 z "
         style="fill:none;fill-opacity:0.75;fill-rule:evenodd;stroke:black;stroke-width:0.11622626px;stroke-linecap:butt;stroke-linejoin:miter;stroke-opacity:1"
         id="path2944" />
      <path
         d="M -453.36969,585.08519 L -453.25234,583.20666 C -453.25234,583.20666 -453.01754,581.68039 -450.1998,580.74117 C -447.38205,579.80187 -452.31308,582.3848 -452.31308,582.3848 L -447.96902,581.21079 L -451.96088,582.85441 L -447.49942,581.91519 L -452.66529,583.55892 L -452.66529,585.31999 L -453.36969,585.08519 z "
         style="fill:none;fill-opacity:0.75;fill-rule:evenodd;stroke:black;stroke-width:0.11622626px;stroke-linecap:butt;stroke-linejoin:miter;stroke-opacity:1"
         id="path2946" />
      <path
         d="M -453.60456,586.494 L -457.83115,591.07292 L -456.65714,592.48173 L -452.54794,587.19851 L -453.60456,586.494 z "
         style="fill:none;fill-opacity:0.75;fill-rule:evenodd;stroke:black;stroke-width:0.11622626px;stroke-linecap:butt;stroke-linejoin:miter;stroke-opacity:1"
         id="path2948" />
      <path
         d="M -457.47899,596.47359 L -456.30488,598.93907 L -451.37382,589.8988 L -453.36969,589.8988 L -457.47899,596.47359 z "
         style="fill:none;fill-opacity:0.75;fill-rule:evenodd;stroke:black;stroke-width:0.11622626px;stroke-linecap:butt;stroke-linejoin:miter;stroke-opacity:1"
         id="path2950" />
    </g>
    <g
       transform="translate(574.2857,-11.12256)"
       id="g2952">
      <path
         d="M -457.94861,585.6722 L -458.41821,600.58279 L -450.31715,600.93505 L -451.0216,585.20254 L -457.94861,585.6722 z "
         style="fill:none;fill-opacity:0.75;fill-rule:evenodd;stroke:black;stroke-width:0.11622626px;stroke-linecap:butt;stroke-linejoin:miter;stroke-opacity:1"
         id="path2954" />
      <path
         d="M -453.36969,585.08519 L -453.25234,583.20666 C -453.25234,583.20666 -453.01754,581.68039 -450.1998,580.74117 C -447.38205,579.80187 -452.31308,582.3848 -452.31308,582.3848 L -447.96902,581.21079 L -451.96088,582.85441 L -447.49942,581.91519 L -452.66529,583.55892 L -452.66529,585.31999 L -453.36969,585.08519 z "
         style="fill:none;fill-opacity:0.75;fill-rule:evenodd;stroke:black;stroke-width:0.11622626px;stroke-linecap:butt;stroke-linejoin:miter;stroke-opacity:1"
         id="path2956" />
      <path
         d="M -453.60456,586.494 L -457.83115,591.07292 L -456.65714,592.48173 L -452.54794,587.19851 L -453.60456,586.494 z "
         style="fill:none;fill-opacity:0.75;fill-rule:evenodd;stroke:black;stroke-width:0.11622626px;stroke-linecap:butt;stroke-linejoin:miter;stroke-opacity:1"
         id="path2958" />
      <path
         d="M -457.47899,596.47359 L -456.30488,598.93907 L -451.37382,589.8988 L -453.36969,589.8988 L -457.47899,596.47359 z "
         style="fill:none;fill-opacity:0.75;fill-rule:evenodd;stroke:black;stroke-width:0.11622626px;stroke-linecap:butt;stroke-linejoin:miter;stroke-opacity:1"
         id="path2960" />
    </g>
    <g
       transform="translate(606.2857,-11.12256)"
       id="g2962">
      <path
         d="M -457.94861,585.6722 L -458.41821,600.58279 L -450.31715,600.93505 L -451.0216,585.20254 L -457.94861,585.6722 z "
         style="fill:none;fill-opacity:0.75;fill-rule:evenodd;stroke:black;stroke-width:0.11622626px;stroke-linecap:butt;stroke-linejoin:miter;stroke-opacity:1"
         id="path2964" />
      <path
         d="M -453.36969,585.08519 L -453.25234,583.20666 C -453.25234,583.20666 -453.01754,581.68039 -450.1998,580.74117 C -447.38205,579.80187 -452.31308,582.3848 -452.31308,582.3848 L -447.96902,581.21079 L -451.96088,582.85441 L -447.49942,581.91519 L -452.66529,583.55892 L -452.66529,585.31999 L -453.36969,585.08519 z "
         style="fill:none;fill-opacity:0.75;fill-rule:evenodd;stroke:black;stroke-width:0.11622626px;stroke-linecap:butt;stroke-linejoin:miter;stroke-opacity:1"
         id="path2966" />
      <path
         d="M -453.60456,586.494 L -457.83115,591.07292 L -456.65714,592.48173 L -452.54794,587.19851 L -453.60456,586.494 z "
         style="fill:none;fill-opacity:0.75;fill-rule:evenodd;stroke:black;stroke-width:0.11622626px;stroke-linecap:butt;stroke-linejoin:miter;stroke-opacity:1"
         id="path2968" />
      <path
         d="M -457.47899,596.47359 L -456.30488,598.93907 L -451.37382,589.8988 L -453.36969,589.8988 L -457.47899,596.47359 z "
         style="fill:none;fill-opacity:0.75;fill-rule:evenodd;stroke:black;stroke-width:0.11622626px;stroke-linecap:butt;stroke-linejoin:miter;stroke-opacity:1"
         id="path2970" />
    </g>
    <g
       transform="translate(642.2857,-11.12256)"
       id="g2972">
      <path
         d="M -457.94861,585.6722 L -458.41821,600.58279 L -450.31715,600.93505 L -451.0216,585.20254 L -457.94861,585.6722 z "
         style="fill:none;fill-opacity:0.75;fill-rule:evenodd;stroke:black;stroke-width:0.11622626px;stroke-linecap:butt;stroke-linejoin:miter;stroke-opacity:1"
         id="path2974" />
      <path
         d="M -453.36969,585.08519 L -453.25234,583.20666 C -453.25234,583.20666 -453.01754,581.68039 -450.1998,580.74117 C -447.38205,579.80187 -452.31308,582.3848 -452.31308,582.3848 L -447.96902,581.21079 L -451.96088,582.85441 L -447.49942,581.91519 L -452.66529,583.55892 L -452.66529,585.31999 L -453.36969,585.08519 z "
         style="fill:none;fill-opacity:0.75;fill-rule:evenodd;stroke:black;stroke-width:0.11622626px;stroke-linecap:butt;stroke-linejoin:miter;stroke-opacity:1"
         id="path2976" />
      <path
         d="M -453.60456,586.494 L -457.83115,591.07292 L -456.65714,592.48173 L -452.54794,587.19851 L -453.60456,586.494 z "
         style="fill:none;fill-opacity:0.75;fill-rule:evenodd;stroke:black;stroke-width:0.11622626px;stroke-linecap:butt;stroke-linejoin:miter;stroke-opacity:1"
         id="path2978" />
      <path
         d="M -457.47899,596.47359 L -456.30488,598.93907 L -451.37382,589.8988 L -453.36969,589.8988 L -457.47899,596.47359 z "
         style="fill:none;fill-opacity:0.75;fill-rule:evenodd;stroke:black;stroke-width:0.11622626px;stroke-linecap:butt;stroke-linejoin:miter;stroke-opacity:1"
         id="path2980" />
    </g>
    <text
       x="-21.594397"
       y="556.29407"
       style="font-size:12px;font-style:normal;font-weight:normal;fill:black;fill-opacity:1;stroke:none;stroke-width:1px;stroke-linecap:butt;stroke-linejoin:miter;stroke-opacity:1;font-family:Bitstream Vera Sans"
       id="text2992"
       xml:space="preserve"><tspan
         x="-21.594397"
         y="556.29407"
         id="tspan2994">Which book mark is good?</tspan></text>
    <path
       d="M -43.81775,535.08085 L 226.90313,532.05039"
       style="fill:none;fill-opacity:0.75;fill-rule:evenodd;stroke:black;stroke-width:1px;stroke-linecap:butt;stroke-linejoin:miter;stroke-opacity:1"
       id="path2996" />
    <path
       d="M 169.32443,519.92856 L 168.31428,529.01993 L 186.49703,528.00978 L 185.48687,518.91841 L 169.32443,519.92856 z "
       style="fill:none;fill-opacity:0.75;fill-rule:evenodd;stroke:black;stroke-width:1px;stroke-linecap:butt;stroke-linejoin:miter;stroke-opacity:1"
       id="path2998" />
    <path
       d="M 191.32443,519.92856 L 190.31428,529.01993 L 208.49703,528.00978 L 207.48687,518.91841 L 191.32443,519.92856 z "
       style="fill:none;fill-opacity:0.75;fill-rule:evenodd;stroke:black;stroke-width:1px;stroke-linecap:butt;stroke-linejoin:miter;stroke-opacity:1"
       id="path3000" />
    <path
       d="M 211.32443,519.92856 L 210.31428,529.01993 L 228.49703,528.00978 L 227.48687,518.91841 L 211.32443,519.92856 z "
       style="fill:none;fill-opacity:0.75;fill-rule:evenodd;stroke:black;stroke-width:1px;stroke-linecap:butt;stroke-linejoin:miter;stroke-opacity:1"
       id="path3002" />
    <text
       x="-626.05469"
       y="-83.938057"
       style="font-size:55.40771484px;font-style:normal;font-variant:normal;font-weight:bold;font-stretch:normal;text-align:start;line-height:125%;writing-mode:lr-tb;text-anchor:start;fill:black;fill-opacity:1;stroke:none;stroke-width:1px;stroke-linecap:butt;stroke-linejoin:miter;stroke-opacity:1;font-family:Bitstream Vera Sans"
       id="text3006"
       xml:space="preserve"><tspan
         x="-626.05469"
         y="-83.938057"
         id="tspan3008">Goals:</tspan><tspan
         x="-626.05469"
         y="-14.678413"
         id="tspan3010"> * Read manga</tspan></text>
    <path
       d="M -603.97662,15.832718 C -603.97662,15.832718 -387.80398,-6.3906415 -125.16432,-0.3297215"
       style="fill:none;fill-opacity:0.75;fill-rule:evenodd;stroke:blue;stroke-width:9.89999962;stroke-linecap:butt;stroke-linejoin:miter;stroke-miterlimit:4;stroke-dasharray:none;stroke-opacity:1"
       id="path3012" />
    <text
       x="124.29025"
       y="73.072876"
       style="font-size:12px;font-style:normal;font-weight:normal;fill:black;fill-opacity:1;stroke:none;stroke-width:1px;stroke-linecap:butt;stroke-linejoin:miter;stroke-opacity:1;font-family:Bitstream Vera Sans"
       id="text12251"
       xml:space="preserve"><tspan
         x="124.29025"
         y="73.072876"
         id="tspan12253">Pagemarks</tspan><tspan
         x="124.29025"
         y="88.072876"
         id="tspan12255">- different goal</tspan><tspan
         x="124.29025"
         y="103.07288"
         id="tspan12257">- marking info, write notes</tspan><tspan
         x="124.29025"
         y="118.07288"
         id="tspan12259">- maybe mark at a place on the page</tspan><tspan
         x="124.29025"
         y="133.07288"
         id="tspan13197" /><tspan
         x="124.29025"
         y="148.07288"
         id="tspan13199" /></text>
    <path
       d="M 572.85714,542.14425 C 572.85714,542.14425 437.14286,529.28711 392.85714,535.0014"
       transform="translate(-634.2812,49.50005)"
       style="fill:none;fill-opacity:0.75;fill-rule:evenodd;stroke:black;stroke-width:1px;stroke-linecap:butt;stroke-linejoin:miter;stroke-opacity:1"
       id="path12273" />
    <g
       transform="translate(-278.5714,508.5714)"
       id="g13149">
      <path
         d="M 145.8017,262.98732 L 143.86208,341.68758 L 203.44136,341.68758 L 204.54976,259.10767 L 145.8017,262.98732 z "
         style="fill:none;fill-opacity:0.75;fill-rule:evenodd;stroke:black;stroke-width:0.77591813px;stroke-linecap:butt;stroke-linejoin:miter;stroke-opacity:1"
         id="path13039" />
      <path
         d="M 186.81465,252.17964 L 187.0918,259.66213 L 200.6703,259.38484 L 199.83888,250.79424 L 186.81465,252.17964 z "
         style="fill:none;fill-opacity:0.75;fill-rule:evenodd;stroke:black;stroke-width:0.77591813px;stroke-linecap:butt;stroke-linejoin:miter;stroke-opacity:1"
         id="path13041" />
      <path
         d="M 197.89923,246.9147 C 197.89923,246.9147 197.89923,244.69776 196.51394,248.30024 C 195.12801,251.90272 196.23665,251.07124 196.23665,251.07124"
         style="fill:none;fill-opacity:0.75;fill-rule:evenodd;stroke:black;stroke-width:0.77591813px;stroke-linecap:butt;stroke-linejoin:miter;stroke-opacity:1"
         id="path13043" />
      <path
         d="M 161.04305,275.45746 C 160.35317,277.16465 158.56142,281.22749 157.99482,283.4938 C 157.75452,284.45517 156.93466,285.68088 156.60913,286.81902"
         style="fill:none;fill-opacity:0.75;fill-rule:evenodd;stroke:black;stroke-width:0.77591813px;stroke-linecap:butt;stroke-linejoin:miter;stroke-opacity:1"
         id="path13045" />
      <path
         d="M 164.64553,277.39699 C 163.656,281.35547 161.3911,284.73755 159.65752,288.20443 C 159.45738,288.60504 159.51508,288.63179 159.38046,289.03596"
         style="fill:none;fill-opacity:0.75;fill-rule:evenodd;stroke:black;stroke-width:0.77591813px;stroke-linecap:butt;stroke-linejoin:miter;stroke-opacity:1"
         id="path13047" />
      <path
         d="M 169.35648,274.90291 C 169.09213,275.43159 171.38083,274.28472 174.89882,275.45746 C 180.52521,277.33292 188.20027,281.08784 188.20027,287.92749 C 188.20027,290.18085 188.90764,290.39252 188.47734,291.2529"
         style="fill:none;fill-opacity:0.75;fill-rule:evenodd;stroke:black;stroke-width:0.77591813px;stroke-linecap:butt;stroke-linejoin:miter;stroke-opacity:1"
         id="path13049" />
      <path
         d="M 174.06743,278.78268 C 174.06743,279.77415 181.09898,288.03115 182.10378,289.03596 C 182.69617,289.62845 182.66886,289.78946 182.93513,290.14443"
         style="fill:none;fill-opacity:0.75;fill-rule:evenodd;stroke:black;stroke-width:0.77591813px;stroke-linecap:butt;stroke-linejoin:miter;stroke-opacity:1"
         id="path13051" />
      <path
         d="M 166.30842,282.38516 C 167.59151,283.66851 164.92249,285.83555 164.92249,287.65042 C 164.92249,289.60337 166.11516,290.86674 166.86247,292.36137 C 167.73561,294.1075 169.05136,295.60922 170.18789,296.51803 C 171.99169,297.96111 173.149,295.5917 175.1759,294.57828 C 177.99547,293.16822 177.30554,287.67992 175.73017,285.71059 C 173.54918,282.98453 171.53935,281.65114 168.52497,280.44547"
         style="fill:none;fill-opacity:0.75;fill-rule:evenodd;stroke:black;stroke-width:0.77591813px;stroke-linecap:butt;stroke-linejoin:miter;stroke-opacity:1"
         id="path13053" />
      <path
         d="M 170.74201,301.50595 C 170.62956,301.36542 171.01905,308.4994 171.01905,313.97624 C 171.01905,316.62429 169.35912,322.001 169.07942,323.12107 C 168.9899,323.47942 169.07942,322.38214 169.07942,322.01267"
         style="fill:none;fill-opacity:0.75;fill-rule:evenodd;stroke:black;stroke-width:0.77591813px;stroke-linecap:butt;stroke-linejoin:miter;stroke-opacity:1"
         id="path13055" />
      <path
         d="M 166.30842,305.66281 C 165.8572,307.4672 157.76781,310.97798 160.21161,313.42203 C 162.28866,315.4989 163.71201,318.21297 165.19978,320.07272"
         style="fill:none;fill-opacity:0.75;fill-rule:evenodd;stroke:black;stroke-width:0.77591813px;stroke-linecap:butt;stroke-linejoin:miter;stroke-opacity:1"
         id="path13057" />
      <path
         d="M 174.06743,305.93987 C 175.24848,307.12094 179.46603,307.2658 181.27238,308.71115 C 183.48919,310.48434 177.00123,318.55341 176.00746,319.79588"
         style="fill:none;fill-opacity:0.75;fill-rule:evenodd;stroke:black;stroke-width:0.77591813px;stroke-linecap:butt;stroke-linejoin:miter;stroke-opacity:1"
         id="path13059" />
      <path
         d="M 165.47694,327.55474 C 167.38117,329.07798 163.09864,331.86071 162.42865,334.20555 C 162.08296,335.41551 162.1942,336.87027 162.42865,337.80803 C 162.60402,338.50956 174.78175,335.81477 175.45296,335.5911 C 180.55836,333.88933 186.99367,333.49536 191.80275,331.43418"
         style="fill:none;fill-opacity:0.75;fill-rule:evenodd;stroke:black;stroke-width:0.77591813px;stroke-linecap:butt;stroke-linejoin:miter;stroke-opacity:1"
         id="path13061" />
      <path
         d="M 173.23584,324.78367 C 174.11692,324.4062 184.52469,328.00894 186.81465,328.66321 C 188.12397,329.03731 188.36519,329.35222 189.30898,329.77168"
         style="fill:none;fill-opacity:0.75;fill-rule:evenodd;stroke:black;stroke-width:0.77591813px;stroke-linecap:butt;stroke-linejoin:miter;stroke-opacity:1"
         id="path13063" />
      <path
         d="M 169.07942,338.0851 C 169.07942,338.0851 169.07942,338.0851 169.07942,338.0851 z "
         style="fill:none;fill-opacity:0.75;fill-rule:evenodd;stroke:black;stroke-width:0.77591813px;stroke-linecap:butt;stroke-linejoin:miter;stroke-opacity:1"
         id="path13065" />
      <path
         d="M 184.04328,335.31419 C 184.87569,335.55187 186.18577,337.45633 186.81465,338.0851 C 187.24683,338.51725 186.96166,338.6729 187.0918,339.19358"
         style="fill:none;fill-opacity:0.75;fill-rule:evenodd;stroke:black;stroke-width:0.77591813px;stroke-linecap:butt;stroke-linejoin:miter;stroke-opacity:1"
         id="path13067" />
      <path
         d="M 168.52497,337.2537 C 169.19125,337.91988 168.65813,339.18229 169.07942,340.02507"
         style="fill:none;fill-opacity:0.75;fill-rule:evenodd;stroke:black;stroke-width:0.77591813px;stroke-linecap:butt;stroke-linejoin:miter;stroke-opacity:1"
         id="path13069" />
      <path
         d="M 167.13954,330.88015 C 167.7449,331.4855 167.05682,332.90275 166.30842,333.65122"
         style="fill:none;fill-opacity:0.75;fill-rule:evenodd;stroke:black;stroke-width:0.77591813px;stroke-linecap:butt;stroke-linejoin:miter;stroke-opacity:1"
         id="path13071" />
      <path
         d="M 173.23584,329.49462 C 173.84832,330.10677 175.27845,332.8712 176.83832,333.65122"
         style="fill:none;fill-opacity:0.75;fill-rule:evenodd;stroke:black;stroke-width:0.77591813px;stroke-linecap:butt;stroke-linejoin:miter;stroke-opacity:1"
         id="path13073" />
      <path
         d="M 178.22401,328.94034 C 178.55843,329.2749 180.13297,329.26046 180.71809,329.49462"
         style="fill:none;fill-opacity:0.75;fill-rule:evenodd;stroke:black;stroke-width:0.77591813px;stroke-linecap:butt;stroke-linejoin:miter;stroke-opacity:1"
         id="path13075" />
      <path
         d="M 232.49957,258.23948 L 233.17191,342.28019 L 295.48208,342.83495 L 290.9996,256.0208 L 232.49957,258.23948 z "
         style="fill:none;fill-opacity:0.75;fill-rule:evenodd;stroke:black;stroke-width:0.69813395px;stroke-linecap:butt;stroke-linejoin:miter;stroke-opacity:1"
         id="path13079" />
      <path
         d="M 239.4664,251.07124 L 239.18911,258.55349 L 255.81593,257.16805 L 254.15333,249.40871 L 239.4664,251.07124 z "
         style="fill:none;fill-opacity:0.75;fill-rule:evenodd;stroke:black;stroke-width:0.77591813px;stroke-linecap:butt;stroke-linejoin:miter;stroke-opacity:1"
         id="path13081" />
      <path
         d="M 245.56296,249.40871 C 245.56296,249.40871 243.06863,246.36061 246.94838,244.69776"
         style="fill:none;fill-opacity:0.75;fill-rule:evenodd;stroke:black;stroke-width:0.77591813px;stroke-linecap:butt;stroke-linejoin:miter;stroke-opacity:1"
         id="path13083" />
      <path
         d="M 272.16572,274.90291 C 271.28692,275.59918 269.87852,277.19031 269.11737,277.95146 C 267.85762,279.21121 268.87547,281.34709 269.39463,282.38516 C 270.32248,284.24111 272.08449,285.16484 273.55125,286.26489 C 275.47944,287.71104 279.98819,283.74976 281.58775,283.21654 C 287.3122,281.30834 283.99246,280.26714 282.41886,277.12006 C 281.33883,274.96029 276.0092,271.34277 274.1055,269.9151 C 272.96892,269.06231 267.8543,272.07084 266.62336,272.68636 C 265.61974,273.18811 265.64559,273.81051 265.23783,274.62605"
         style="fill:none;fill-opacity:0.75;fill-rule:evenodd;stroke:black;stroke-width:0.77591813px;stroke-linecap:butt;stroke-linejoin:miter;stroke-opacity:1"
         id="path13085" />
      <path
         d="M 267.17759,284.60195 C 265.01589,285.68292 261.04547,292.71035 259.69534,295.40939 C 257.89549,299.01031 253.38365,302.27567 250.82792,304.8314"
         style="fill:none;fill-opacity:0.75;fill-rule:evenodd;stroke:black;stroke-width:0.77591813px;stroke-linecap:butt;stroke-linejoin:miter;stroke-opacity:1"
         id="path13087" />
      <path
         d="M 259.14134,288.48172 C 257.11965,292.52522 244.08543,294.48559 239.4664,296.79532 C 233.98014,299.53826 233.8333,298.12025 238.91202,301.50595 C 244.53278,305.25341 248.50575,306.66606 253.32192,311.48223 C 256.05273,314.21297 256.79473,315.28807 258.30994,314.53018 C 263.31711,312.0272 262.4601,298.20081 263.85229,294.02397 C 264.59411,291.79851 266.62336,287.53354 266.62336,287.09628 C 266.62336,284.6945 261.81996,287.09628 259.41841,287.09628 C 258.77185,287.09628 258.1253,287.09628 257.47855,287.09628"
         style="fill:none;fill-opacity:0.75;fill-rule:evenodd;stroke:black;stroke-width:0.77591813px;stroke-linecap:butt;stroke-linejoin:miter;stroke-opacity:1"
         id="path13089" />
      <path
         d="M 267.73183,294.57828 C 267.67351,294.57828 274.41174,292.21551 280.47911,290.69851 C 282.46273,290.20259 284.44317,290.20893 286.29838,289.59036"
         style="fill:none;fill-opacity:0.75;fill-rule:evenodd;stroke:black;stroke-width:0.77591813px;stroke-linecap:butt;stroke-linejoin:miter;stroke-opacity:1"
         id="path13091" />
      <path
         d="M 257.75581,281.55394 C 259.40815,281.14078 258.10245,278.08931 258.86448,276.56613 C 259.43353,275.42778 259.45614,273.99598 259.97263,272.96365"
         style="fill:none;fill-opacity:0.75;fill-rule:evenodd;stroke:black;stroke-width:0.77591813px;stroke-linecap:butt;stroke-linejoin:miter;stroke-opacity:1"
         id="path13093" />
      <path
         d="M 240.57455,310.9277 C 241.7388,308.59993 236.11608,313.70739 233.64688,314.53018 C 231.91942,315.10609 227.48609,317.94145 226.71905,318.96425"
         style="fill:none;fill-opacity:0.75;fill-rule:evenodd;stroke:black;stroke-width:0.77591813px;stroke-linecap:butt;stroke-linejoin:miter;stroke-opacity:1"
         id="path13095" />
      <path
         d="M 250.82792,313.14483 C 249.30536,313.65238 245.52975,324.05131 244.73144,326.44626 C 244.05438,328.47732 242.31428,330.52613 241.40602,331.43418 C 240.70201,332.13855 240.31579,332.52477 239.74342,333.09709"
         style="fill:none;fill-opacity:0.75;fill-rule:evenodd;stroke:black;stroke-width:0.77591813px;stroke-linecap:butt;stroke-linejoin:miter;stroke-opacity:1"
         id="path13097" />
    </g>
    <text
       x="-439.36389"
       y="76.827576"
       style="font-size:12px;font-style:normal;font-weight:normal;fill:black;fill-opacity:1;stroke:none;stroke-width:1px;stroke-linecap:butt;stroke-linejoin:miter;stroke-opacity:1;font-family:Bitstream Vera Sans"
       id="text13233"
       xml:space="preserve"><tspan
         x="-439.36389"
         y="76.827576"
         style="font-family:Bitstream Vera Sans Mono"
         id="tspan13235">- hard, slowed down by extract/decode/scale</tspan><tspan
         x="-439.36389"
         y="91.827576"
         style="font-family:Bitstream Vera Sans Mono"
         id="tspan13237">- hard, write preview handler for kfile, slowed </tspan><tspan
         x="-439.36389"
         y="106.82758"
         style="font-family:Bitstream Vera Sans Mono"
         id="tspan13383">down by extract/decode/scale</tspan><tspan
         x="-439.36389"
         y="121.82758"
         style="font-family:Bitstream Vera Sans Mono"
         id="tspan13239" /><tspan
         x="-439.36389"
         y="136.82758"
         style="font-family:Bitstream Vera Sans Mono"
         id="tspan13241">- hard, slowed down by extract/decode/scale</tspan><tspan
         x="-439.36389"
         y="151.82758"
         style="font-family:Bitstream Vera Sans Mono"
         id="tspan13243">- easy, need to precache pages</tspan><tspan
         x="-439.36389"
         y="166.82758"
         style="font-family:Bitstream Vera Sans Mono"
         id="tspan13245">- impossible, fudge by latching onto stride</tspan><tspan
         x="-439.36389"
         y="181.82758"
         style="font-family:Bitstream Vera Sans Mono"
         id="tspan13247" /><tspan
         x="-439.36389"
         y="196.82758"
         style="font-family:Bitstream Vera Sans Mono"
         id="tspan13249">- easy, scale and lay out</tspan><tspan
         x="-439.36389"
         y="211.82758"
         style="font-family:Bitstream Vera Sans Mono"
         id="tspan13251">- easy, lay out</tspan><tspan
         x="-439.36389"
         y="226.82758"
         style="font-family:Bitstream Vera Sans Mono"
         id="tspan13253" /><tspan
         x="-439.36389"
         y="241.82758"
         style="font-family:Bitstream Vera Sans Mono"
         id="tspan13255">- hard, fudge by giving &quot;page / total&quot;</tspan><tspan
         x="-439.36389"
         y="256.82758"
         style="font-family:Bitstream Vera Sans Mono"
         id="tspan13257" /><tspan
         x="-439.36389"
         y="271.82758"
         style="font-family:Bitstream Vera Sans Mono"
         id="tspan13259" /><tspan
         x="-439.36389"
         y="286.82758"
         style="font-family:Bitstream Vera Sans Mono"
         id="tspan13261">- impossible, monitor pixels are huge</tspan><tspan
         x="-439.36389"
         y="301.82758"
         style="font-family:Bitstream Vera Sans Mono"
         id="tspan13263" /><tspan
         x="-439.36389"
         y="316.82758"
         style="font-family:Bitstream Vera Sans Mono"
         id="tspan13267">- hard, need to know when to chapters go </tspan><tspan
         x="-439.36389"
         y="331.82758"
         style="font-family:Bitstream Vera Sans Mono"
         id="tspan13393">together, where to find</tspan><tspan
         x="-439.36389"
         y="346.82758"
         style="font-family:Bitstream Vera Sans Mono"
         id="tspan13271" /><tspan
         x="-439.36389"
         y="361.82758"
         style="font-family:Bitstream Vera Sans Mono"
         id="tspan13399" /><tspan
         x="-439.36389"
         y="376.82758"
         style="font-family:Bitstream Vera Sans Mono"
         id="tspan13273">- hard, maybe use strigi to get list of archives</tspan><tspan
         x="-439.36389"
         y="391.82758"
         style="font-family:Bitstream Vera Sans Mono"
         id="tspan13275">-       or remember where books are opened from</tspan><tspan
         x="-439.36389"
         y="406.82758"
         style="font-family:Bitstream Vera Sans Mono"
         id="tspan13277" /><tspan
         x="-439.36389"
         y="421.82758"
         style="font-family:Bitstream Vera Sans Mono"
         id="tspan13279" /><tspan
         x="-439.36389"
         y="436.82758"
         style="font-family:Bitstream Vera Sans Mono"
         id="tspan13281" /><tspan
         x="-439.36389"
         y="451.82758"
         style="font-family:Bitstream Vera Sans Mono"
         id="tspan13283" /><tspan
         x="-439.36389"
         y="466.82758"
         style="font-family:Bitstream Vera Sans Mono"
         id="tspan13285">- do you want bookmark here?</tspan><tspan
         x="-439.36389"
         y="481.82758"
         style="font-family:Bitstream Vera Sans Mono"
         id="tspan13287" /><tspan
         x="-439.36389"
         y="496.82758"
         style="font-family:Bitstream Vera Sans Mono"
         id="tspan13289" /><tspan
         x="-439.36389"
         y="511.82758"
         style="font-family:Bitstream Vera Sans Mono"
         id="tspan13291">- automatically move bookmark when at </tspan><tspan
         x="-439.36389"
         y="526.82758"
         style="font-family:Bitstream Vera Sans Mono"
         id="tspan13385">end (i.e. not needed) and changing book</tspan><tspan
         x="-439.36389"
         y="541.82758"
         style="font-family:Bitstream Vera Sans Mono"
         id="tspan13293" /><tspan
         x="-439.36389"
         y="556.82758"
         style="font-family:Bitstream Vera Sans Mono"
         id="tspan13295">- at least colour and patterns</tspan><tspan
         x="-439.36389"
         y="571.82758"
         style="font-family:Bitstream Vera Sans Mono"
         id="tspan13297">- option when no bookmark</tspan><tspan
         x="-439.36389"
         y="586.82758"
         style="font-family:Bitstream Vera Sans Mono"
         id="tspan13299" /><tspan
         x="-439.36389"
         y="601.82758"
         style="font-family:Bitstream Vera Sans Mono"
         id="tspan13301">- option when is bookmarked</tspan></text>
    <text
       x="-627.36389"
       y="76.541885"
       style="font-size:12px;font-style:normal;font-weight:normal;fill:black;fill-opacity:1;stroke:none;stroke-width:1px;stroke-linecap:butt;stroke-linejoin:miter;stroke-opacity:1;font-family:Bitstream Vera Sans"
       id="text13303"
       xml:space="preserve"><tspan
         x="-627.36389"
         y="76.541885"
         id="tspan13307">- pick up book and see cover</tspan><tspan
         x="-627.36389"
         y="91.541885"
         id="tspan13309">- glance and see cover</tspan><tspan
         x="-627.36389"
         y="106.54189"
         id="tspan13311" /><tspan
         x="-627.36389"
         y="121.54189"
         id="tspan13313" /><tspan
         x="-627.36389"
         y="136.54189"
         id="tspan13315">- start reading without delays</tspan><tspan
         x="-627.36389"
         y="151.54189"
         id="tspan13317">- turn pages without delays</tspan><tspan
         x="-627.36389"
         y="166.54189"
         id="tspan13319">- flip pages without delays</tspan><tspan
         x="-627.36389"
         y="181.54189"
         id="tspan13321" /><tspan
         x="-627.36389"
         y="196.54189"
         id="tspan13323">- see both pages at once</tspan><tspan
         x="-627.36389"
         y="211.54189"
         id="tspan13325">- see full pages at once</tspan><tspan
         x="-627.36389"
         y="226.54189"
         id="tspan13327" /><tspan
         x="-627.36389"
         y="241.54189"
         id="tspan13329">- have an idea of how far </tspan><tspan
         x="-627.36389"
         y="256.5419"
         id="tspan13365">though the book you are</tspan><tspan
         x="-627.36389"
         y="271.5419"
         id="tspan13331" /><tspan
         x="-627.36389"
         y="286.5419"
         id="tspan13333">- look closer to read small text</tspan><tspan
         x="-627.36389"
         y="301.5419"
         id="tspan13335" /><tspan
         x="-627.36389"
         y="316.5419"
         id="tspan13337">- don't have to find a new </tspan><tspan
         x="-627.36389"
         y="331.5419"
         id="tspan13367">book to read next chapter in </tspan><tspan
         x="-627.36389"
         y="346.5419"
         id="tspan13369">volume</tspan><tspan
         x="-627.36389"
         y="361.5419"
         id="tspan13339" /><tspan
         x="-627.36389"
         y="376.5419"
         id="tspan13341">- books stored together on a </tspan><tspan
         x="-627.36389"
         y="391.5419"
         id="tspan13371">bookshelf</tspan><tspan
         x="-627.36389"
         y="406.5419"
         id="tspan13343" /><tspan
         x="-627.36389"
         y="421.5419"
         id="tspan13345">bookmarks</tspan><tspan
         x="-627.36389"
         y="436.5419"
         id="tspan13347">- look @ shelf, see which </tspan><tspan
         x="-627.36389"
         y="451.5419"
         id="tspan13373">books have them</tspan><tspan
         x="-627.36389"
         y="466.5419"
         id="tspan13349">- habit to move mark when </tspan><tspan
         x="-627.36389"
         y="481.5419"
         id="tspan13375">putting book down</tspan><tspan
         x="-627.36389"
         y="496.5419"
         id="tspan13351">- one per book</tspan><tspan
         x="-627.36389"
         y="511.5419"
         id="tspan13353">- one special bookmark, move </tspan><tspan
         x="-627.36389"
         y="526.54187"
         id="tspan13377">to a new book when finished </tspan><tspan
         x="-627.36389"
         y="541.54187"
         id="tspan13379">current book (or chapter!)</tspan><tspan
         x="-627.36389"
         y="556.54187"
         id="tspan13355">- tassle and art</tspan><tspan
         x="-627.36389"
         y="571.54187"
         id="tspan13357">- use bookmark - pick the </tspan><tspan
         x="-627.36389"
         y="586.54187"
         id="tspan13381">design</tspan><tspan
         x="-627.36389"
         y="601.54187"
         id="tspan13359">- take out bookmark</tspan><tspan
         x="-627.36389"
         y="616.54187"
         id="tspan13361" /><tspan
         x="-627.36389"
         y="631.54187"
         id="tspan13363" /></text>
    <text
       x="-626.64966"
       y="56.827583"
       style="font-size:18px;font-style:normal;font-weight:bold;fill:black;fill-opacity:1;stroke:none;stroke-width:1px;stroke-linecap:butt;stroke-linejoin:miter;stroke-opacity:1;font-family:Bitstream Vera Sans"
       id="text13389"
       xml:space="preserve"><tspan
         x="-626.64966"
         y="56.827583"
         id="tspan13391">Physical properties: </tspan></text>
    <text
       x="-165.93535"
       y="728.25616"
       style="font-size:12px;font-style:normal;font-weight:normal;fill:black;fill-opacity:1;stroke:none;stroke-width:1px;stroke-linecap:butt;stroke-linejoin:miter;stroke-opacity:1;font-family:Bitstream Vera Sans"
       id="text13505"
       xml:space="preserve"><tspan
         x="-165.93535"
         y="728.25616"
         id="tspan13507">start w/o args</tspan><tspan
         x="-165.93535"
         y="743.25616"
         id="tspan13509">- blank page has books (thumnails) w/ coloured marks showing</tspan><tspan
         x="-165.93535"
         y="758.25616"
         id="tspan13511"></tspan><tspan
         x="-165.93535"
         y="773.25616"
         id="tspan13513"></tspan><tspan
         x="-165.93535"
         y="788.25616"
         id="tspan13515"></tspan><tspan
         x="-165.93535"
         y="803.25616"
         id="tspan13517"></tspan><tspan
         x="-165.93535"
         y="818.25616"
         id="tspan13519"></tspan><tspan
         x="-165.93535"
         y="833.25616"
         id="tspan13521"></tspan><tspan
         x="-165.93535"
         y="848.25616"
         id="tspan13523"></tspan><tspan
         x="-165.93535"
         y="863.25616"
         id="tspan13525"></tspan><tspan
         x="-165.93535"
         y="878.25616"
         id="tspan13527">- remember which way each book opens</tspan><tspan
         x="-165.93535"
         y="893.25616"
         id="tspan13529">- click -&gt; open anim</tspan><tspan
         x="-165.93535"
         y="908.25616"
         id="tspan13531"></tspan><tspan
         x="-165.93535"
         y="923.25616"
         id="tspan13533" /></text>
  </g>
</svg>
